{
	"asset":{
		"generator":"Khronos glTF Blender I/O v3.6.27",
		"version":"2.0"
	},
	"scene":0,
	"scenes":[
		{
			"name":"Scene",
			"nodes":[
				0,
				1,
				2,
				3
			]
		}
	],
	"nodes":[
		{
			"name":"Empty",
			"rotation":[
				0.7071068286895752,
				0,
				0,
				0.7071068286895752
			],
			"scale":[
				0.3162720799446106,
				0.3162720799446106,
				0.316272109746933
			],
			"translation":[
				0.006501501426100731,
				0.8700000047683716,
				1.093906044960022
			]
		},
		{
			"mesh":0,
			"name":"Cylinder.001",
			"rotation":[
				0.7071068286895752,
				0,
				0,
				0.7071068286895752
			],
			"scale":[
				0.772823691368103,
				0.05409765988588333,
				0.772823691368103
			],
			"translation":[
				0,
				0.8700000047683716,
				1.0099999904632568
			]
		},
		{
			"mesh":1,
			"name":"Cube",
			"rotation":[
				-0.003011133288964629,
				0.7134469151496887,
				-0.004393659997731447,
				0.7006891369819641
			],
			"translation":[
				0.0006620883941650391,
				0.8543121218681335,
				0.007316723465919495
			]
		},
		{
			"mesh":2,
			"name":"Cylinder",
			"rotation":[
				-0.5958415269851685,
				0.5904296040534973,
				-0.38755643367767334,
				0.38231635093688965
			],
			"scale":[
				0.09047023952007294,
				0.05505415052175522,
				0.09047024697065353
			],
			"translation":[
				0.5691969990730286,
				1.2589861154556274,
				0.8311120271682739
			]
		}
	],
	"materials":[
		{
			"doubleSided":true,
			"emissiveFactor":[
				0.003095457796007395,
				0.003095457796007395,
				0.003095457796007395
			],
			"name":"Material.001",
			"pbrMetallicRoughness":{
				"baseColorFactor":[
					0,
					0,
					0,
					1
				],
				"metallicFactor":0,
				"roughnessFactor":0.2750000059604645
			}
		},
		{
			"doubleSided":true,
			"name":"IG",
			"pbrMetallicRoughness":{
				"baseColorFactor":[
					0.800000011920929,
					0.800000011920929,
					0.800000011920929,
					1
				],
				"metallicFactor":0,
				"roughnessFactor":0.2750000059604645
			}
		},
		{
			"doubleSided":true,
			"emissiveFactor":[
				1,
				1,
				1
			],
			"name":"White",
			"pbrMetallicRoughness":{
				"baseColorFactor":[
					0.8000000715255737,
					0.6130876541137695,
					0.48953232169151306,
					1
				],
				"metallicFactor":0,
				"roughnessFactor":0.15000000596046448
			}
		}
	],
	"meshes":[
		{
			"name":"Cylinder.002",
			"primitives":[
				{
					"attributes":{
						"POSITION":0,
						"NORMAL":1,
						"TEXCOORD_0":2
					},
					"indices":3,
					"material":0
				}
			]
		},
		{
			"name":"Cube.001",
			"primitives":[
				{
					"attributes":{
						"POSITION":4,
						"NORMAL":5,
						"TEXCOORD_0":6
					},
					"indices":7,
					"material":1
				}
			]
		},
		{
			"name":"Cylinder",
			"primitives":[
				{
					"attributes":{
						"POSITION":8,
						"NORMAL":9,
						"TEXCOORD_0":10
					},
					"indices":11,
					"material":2
				}
			]
		}
	],
	"accessors":[
		{
			"bufferView":0,
			"componentType":5126,
			"count":1124,
			"max":[
				1,
				1,
				1
			],
			"min":[
				-1,
				-17.485088348388672,
				-1
			],
			"type":"VEC3"
		},
		{
			"bufferView":1,
			"componentType":5126,
			"count":1124,
			"type":"VEC3"
		},
		{
			"bufferView":2,
			"componentType":5126,
			"count":1124,
			"type":"VEC2"
		},
		{
			"bufferView":3,
			"componentType":5123,
			"count":2220,
			"type":"SCALAR"
		},
		{
			"bufferView":4,
			"componentType":5126,
			"count":901,
			"max":[
				0.039739012718200684,
				1,
				1
			],
			"min":[
				-1,
				-1,
				-1
			],
			"type":"VEC3"
		},
		{
			"bufferView":5,
			"componentType":5126,
			"count":901,
			"type":"VEC3"
		},
		{
			"bufferView":6,
			"componentType":5126,
			"count":901,
			"type":"VEC2"
		},
		{
			"bufferView":7,
			"componentType":5123,
			"count":3444,
			"type":"SCALAR"
		},
		{
			"bufferView":8,
			"componentType":5126,
			"count":281,
			"max":[
				1,
				1,
				1
			],
			"min":[
				-1,
				-1,
				-1
			],
			"type":"VEC3"
		},
		{
			"bufferView":9,
			"componentType":5126,
			"count":281,
			"type":"VEC3"
		},
		{
			"bufferView":10,
			"componentType":5126,
			"count":281,
			"type":"VEC2"
		},
		{
			"bufferView":11,
			"componentType":5123,
			"count":1140,
			"type":"SCALAR"
		}
	],
	"bufferViews":[
		{
			"buffer":0,
			"byteLength":13488,
			"byteOffset":0,
			"target":34962
		},
		{
			"buffer":0,
			"byteLength":13488,
			"byteOffset":13488,
			"target":34962
		},
		{
			"buffer":0,
			"byteLength":8992,
			"byteOffset":26976,
			"target":34962
		},
		{
			"buffer":0,
			"byteLength":4440,
			"byteOffset":35968,
			"target":34963
		},
		{
			"buffer":0,
			"byteLength":10812,
			"byteOffset":40408,
			"target":34962
		},
		{
			"buffer":0,
			"byteLength":10812,
			"byteOffset":51220,
			"target":34962
		},
		{
			"buffer":0,
			"byteLength":7208,
			"byteOffset":62032,
			"target":34962
		},
		{
			"buffer":0,
			"byteLength":6888,
			"byteOffset":69240,
			"target":34963
		},
		{
			"buffer":0,
			"byteLength":3372,
			"byteOffset":76128,
			"target":34962
		},
		{
			"buffer":0,
			"byteLength":3372,
			"byteOffset":79500,
			"target":34962
		},
		{
			"buffer":0,
			"byteLength":2248,
			"byteOffset":82872,
			"target":34962
		},
		{
			"buffer":0,
			"byteLength":2280,
			"byteOffset":85120,
			"target":34963
		}
	],
	"buffers":[
		{
			"byteLength":87400,
			"uri":"data:application/octet-stream;base64,"
		}
	]
}
