{
	"asset":{
		"generator":"Khronos glTF Blender I/O v3.6.27",
		"version":"2.0"
	},
	"scene":0,
	"scenes":[
		{
			"name":"Scene",
			"nodes":[
				0,
				1,
				2,
				3
			]
		}
	],
	"nodes":[
		{
			"name":"Empty",
			"rotation":[
				0.7071068286895752,
				0,
				0,
				0.7071068286895752
			],
			"scale":[
				0.3163401484489441,
				0.3163401484489441,
				0.31634020805358887
			],
			"translation":[
				0,
				0.8700000047683716,
				1.0499999523162842
			]
		},
		{
			"mesh":0,
			"name":"Cube.006",
			"rotation":[
				0.9238795638084412,
				0.3826834559440613,
				0,
				0
			],
			"scale":[
				-0.11363699287176132,
				-0.6416729092597961,
				-0.125
			],
			"translation":[
				-0.0009564030915498734,
				1.0118544101715088,
				0.9811599850654602
			]
		},
		{
			"mesh":1,
			"name":"Cube",
			"rotation":[
				-0.003011133288964629,
				0.7134469151496887,
				-0.004393659997731447,
				0.7006891369819641
			],
			"translation":[
				0.0006620883941650391,
				0.8543121218681335,
				0.007316723465919495
			]
		},
		{
			"mesh":2,
			"name":"Cylinder",
			"rotation":[
				-0.5958415269851685,
				0.5904296040534973,
				-0.38755643367767334,
				0.38231635093688965
			],
			"scale":[
				0.09047023952007294,
				0.05505415052175522,
				0.09047024697065353
			],
			"translation":[
				0.5691969990730286,
				1.2589861154556274,
				0.8311120271682739
			]
		}
	],
	"materials":[
		{
			"doubleSided":true,
			"emissiveFactor":[
				0.004314681980758905,
				1,
				0
			],
			"name":"Material",
			"pbrMetallicRoughness":{
				"baseColorFactor":[
					0.002835715189576149,
					0.8000000715255737,
					0,
					1
				],
				"metallicFactor":0,
				"roughnessFactor":0.5
			}
		},
		{
			"doubleSided":true,
			"name":"IG",
			"pbrMetallicRoughness":{
				"baseColorFactor":[
					0.800000011920929,
					0.800000011920929,
					0.800000011920929,
					1
				],
				"metallicFactor":0,
				"roughnessFactor":0.2750000059604645
			}
		},
		{
			"doubleSided":true,
			"emissiveFactor":[
				1,
				1,
				1
			],
			"name":"White",
			"pbrMetallicRoughness":{
				"baseColorFactor":[
					0.8000000715255737,
					0.6130876541137695,
					0.48953232169151306,
					1
				],
				"metallicFactor":0,
				"roughnessFactor":0.15000000596046448
			}
		}
	],
	"meshes":[
		{
			"name":"Cube.007",
			"primitives":[
				{
					"attributes":{
						"POSITION":0,
						"NORMAL":1,
						"TEXCOORD_0":2
					},
					"indices":3,
					"material":0
				}
			]
		},
		{
			"name":"Cube.001",
			"primitives":[
				{
					"attributes":{
						"POSITION":4,
						"NORMAL":5,
						"TEXCOORD_0":6
					},
					"indices":7,
					"material":1
				}
			]
		},
		{
			"name":"Cylinder",
			"primitives":[
				{
					"attributes":{
						"POSITION":8,
						"NORMAL":9,
						"TEXCOORD_0":10
					},
					"indices":11,
					"material":2
				}
			]
		}
	],
	"accessors":[
		{
			"bufferView":0,
			"componentType":5126,
			"count":120,
			"max":[
				6.5348663330078125,
				1,
				1
			],
			"min":[
				-5.646690368652344,
				-1.150710940361023,
				-1.0078401565551758
			],
			"type":"VEC3"
		},
		{
			"bufferView":1,
			"componentType":5126,
			"count":120,
			"type":"VEC3"
		},
		{
			"bufferView":2,
			"componentType":5126,
			"count":120,
			"type":"VEC2"
		},
		{
			"bufferView":3,
			"componentType":5123,
			"count":180,
			"type":"SCALAR"
		},
		{
			"bufferView":4,
			"componentType":5126,
			"count":901,
			"max":[
				0.039739012718200684,
				1,
				1
			],
			"min":[
				-1,
				-1,
				-1
			],
			"type":"VEC3"
		},
		{
			"bufferView":5,
			"componentType":5126,
			"count":901,
			"type":"VEC3"
		},
		{
			"bufferView":6,
			"componentType":5126,
			"count":901,
			"type":"VEC2"
		},
		{
			"bufferView":7,
			"componentType":5123,
			"count":3444,
			"type":"SCALAR"
		},
		{
			"bufferView":8,
			"componentType":5126,
			"count":281,
			"max":[
				1,
				1,
				1
			],
			"min":[
				-1,
				-1,
				-1
			],
			"type":"VEC3"
		},
		{
			"bufferView":9,
			"componentType":5126,
			"count":281,
			"type":"VEC3"
		},
		{
			"bufferView":10,
			"componentType":5126,
			"count":281,
			"type":"VEC2"
		},
		{
			"bufferView":11,
			"componentType":5123,
			"count":1140,
			"type":"SCALAR"
		}
	],
	"bufferViews":[
		{
			"buffer":0,
			"byteLength":1440,
			"byteOffset":0,
			"target":34962
		},
		{
			"buffer":0,
			"byteLength":1440,
			"byteOffset":1440,
			"target":34962
		},
		{
			"buffer":0,
			"byteLength":960,
			"byteOffset":2880,
			"target":34962
		},
		{
			"buffer":0,
			"byteLength":360,
			"byteOffset":3840,
			"target":34963
		},
		{
			"buffer":0,
			"byteLength":10812,
			"byteOffset":4200,
			"target":34962
		},
		{
			"buffer":0,
			"byteLength":10812,
			"byteOffset":15012,
			"target":34962
		},
		{
			"buffer":0,
			"byteLength":7208,
			"byteOffset":25824,
			"target":34962
		},
		{
			"buffer":0,
			"byteLength":6888,
			"byteOffset":33032,
			"target":34963
		},
		{
			"buffer":0,
			"byteLength":3372,
			"byteOffset":39920,
			"target":34962
		},
		{
			"buffer":0,
			"byteLength":3372,
			"byteOffset":43292,
			"target":34962
		},
		{
			"buffer":0,
			"byteLength":2248,
			"byteOffset":46664,
			"target":34962
		},
		{
			"buffer":0,
			"byteLength":2280,
			"byteOffset":48912,
			"target":34963
		}
	],
	"buffers":[
		{
			"byteLength":51192,
			"uri":"data:application/octet-stream;base64,"
		}
	]
}
